<?xml version="1.0" encoding="utf-8"?>
<!-- Generator: Adobe Illustrator 24.0.2, SVG Export Plug-In . SVG Version: 6.00 Build 0)  -->
<svg version="1.1" xmlns="http://www.w3.org/2000/svg" xmlns:xlink="http://www.w3.org/1999/xlink" x="0px" y="0px"
	 viewBox="0 0 2880 1800" style="enable-background:new 0 0 2880 1800;" xml:space="preserve">
<style type="text/css">
	.st0{fill:#FFFFFF;}
	.st1{fill:#292929;}
	.st2{fill:#B20000;}
	.st3{font-family:'Lato-Bold';}
	.st4{font-size:184.2004px;}
</style>
<g id="Layer_1">
</g>
<g id="Layer_2">
	<g>
		<g>
			<rect x="1440.08" y="0.04" class="st0" width="1440" height="1800"/>
		</g>
		<g>
			<g>
				<g>
					<path class="st1" d="M2717.61,645.64l-111.5-111.5l-111.5-111.5l0,0c-61.58-61.58-161.43-61.58-223.01,0v0l-67.91,67.91
						c-24.08,24.08-63.11,24.08-87.19,0l-67.91-67.91l0,0c-61.58-61.58-161.43-61.58-223.01,0l0,0l-111.5,111.5l-111.5,111.5l0,0
						c-61.58,61.58-61.58,161.43,0,223.01l0,0l111.5,111.5l111.5,111.5l111.5,111.5l0,0c61.58-61.58,61.58-161.43,0-223.01l0,0
						l-111.5-111.5l-82.74-82.74c-15.89-15.89-15.89-41.64,0-57.53l82.74-82.74l76.62-76.62c19.26-19.26,50.5-19.26,69.76,0
						l76.62,76.62l67.91,67.91c24.08,24.08,63.11,24.08,87.19,0l67.91-67.91l76.62-76.62c19.26-19.26,50.5-19.26,69.76,0
						l76.62,76.62l82.74,82.74c15.89,15.89,15.89,41.64,0,57.53l-82.74,82.74l-111.5,111.5l0,0c-61.58,61.58-61.58,161.43,0,223.01
						l0,0l111.5-111.5l111.5-111.5l111.5-111.5v0C2779.19,807.07,2779.19,707.22,2717.61,645.64L2717.61,645.64z"/>
					<g>
						<path class="st1" d="M2058.2,758.96h-231.52c0,0,20.13,60.4,140.93,100.66c50.33,10.07,70.46-70.46,70.46-70.46
							s10.07,40.26-10.07,80.53C2058.2,869.69,2088.4,779.1,2058.2,758.96z"/>
						<path class="st1" d="M2261.97,758.96h231.52c0,0-20.13,60.4-140.93,100.66c-50.33,10.07-70.46-70.46-70.46-70.46
							s-10.07,40.26,10.07,80.53C2261.97,869.69,2231.77,779.1,2261.97,758.96z"/>
					</g>
				</g>
				<path class="st2" d="M2025.98,940.16c0,0,50.33,80.53,130.86,70.46c57.16-7.15,78.82-39.65,86.58-57.91
					c3.53-8.3,11.01-14.33,19.99-15.26c20.51-2.13,49.5,0.65,14.23,42.98C2227.31,1040.82,2126.64,1101.22,2025.98,940.16z"/>
			</g>
			<text transform="matrix(1 0 0 1 1623.147 1390.3782)"><tspan x="0" y="0" class="st2 st3 st4">Maniac</tspan><tspan x="606.66" y="0" class="st3 st4"> </tspan><tspan x="642.21" y="0" class="st1 st3 st4">Code</tspan></text>
		</g>
	</g>
	<g>
		<g>
			<rect x="0.08" y="0.04" class="st0" width="1440" height="1800"/>
		</g>
		<g>
			<g>
				<g>
					<path class="st2" d="M1277.61,645.64l-111.5-111.5l-111.5-111.5l0,0c-61.58-61.58-161.43-61.58-223.01,0l0,0l-67.91,67.91
						c-24.08,24.08-63.11,24.08-87.19,0l-67.91-67.91l0,0c-61.58-61.58-161.43-61.58-223.01,0l0,0l-111.5,111.5l-111.5,111.5l0,0
						c-61.58,61.58-61.58,161.43,0,223.01l0,0l111.5,111.5l111.5,111.5l111.5,111.5l0,0c61.58-61.58,61.58-161.43,0-223.01l0,0
						l-111.5-111.5l-82.74-82.74c-15.89-15.89-15.89-41.64,0-57.53l82.74-82.74l76.62-76.62c19.26-19.26,50.5-19.26,69.76,0
						l76.62,76.62l67.91,67.91c24.08,24.08,63.11,24.08,87.19,0l67.91-67.91l76.62-76.62c19.26-19.26,50.5-19.26,69.76,0
						l76.62,76.62l82.74,82.74c15.89,15.89,15.89,41.64,0,57.53l-82.74,82.74l-111.5,111.5l0,0c-61.58,61.58-61.58,161.43,0,223.01
						l0,0l111.5-111.5l111.5-111.5l111.5-111.5l0,0C1339.19,807.07,1339.19,707.22,1277.61,645.64L1277.61,645.64z"/>
					<g>
						<path class="st2" d="M618.2,758.96H386.68c0,0,20.13,60.4,140.93,100.66c50.33,10.07,70.46-70.46,70.46-70.46
							s10.07,40.26-10.07,80.53C618.2,869.69,648.4,779.1,618.2,758.96z"/>
						<path class="st2" d="M821.97,758.96h231.52c0,0-20.13,60.4-140.93,100.66c-50.33,10.07-70.46-70.46-70.46-70.46
							s-10.07,40.26,10.07,80.53C821.97,869.69,791.77,779.1,821.97,758.96z"/>
					</g>
				</g>
				<path class="st2" d="M585.98,940.16c0,0,50.33,80.53,130.86,70.46c57.16-7.15,78.82-39.65,86.58-57.91
					c3.53-8.3,11.01-14.33,19.99-15.26c20.51-2.13,49.5,0.65,14.23,42.98C787.31,1040.82,686.64,1101.22,585.98,940.16z"/>
			</g>
			<text transform="matrix(1 0 0 1 183.147 1390.3782)" class="st2 st3 st4">Maniac Code</text>
		</g>
	</g>
</g>
</svg>
